<?xml version="1.0" standalone="no"?>
<!DOCTYPE svg PUBLIC "-//W3C//DTD SVG 20010904//EN"
 "http://www.w3.org/TR/2001/REC-SVG-20010904/DTD/svg10.dtd">
<svg version="1.0" xmlns="http://www.w3.org/2000/svg"
 width="512.000000pt" height="512.000000pt" viewBox="0 0 512.000000 512.000000"
 preserveAspectRatio="xMidYMid meet">
<metadata>
Created by potrace 1.14, written by Peter Selinger 2001-2017
</metadata>
<g transform="translate(0.000000,512.000000) scale(0.100000,-0.100000)"
fill="#000000" stroke="none">
<path d="M2280 3190 c-579 -28 -972 -78 -1350 -171 -448 -111 -710 -258 -761
-430 -32 -106 93 -246 314 -349 413 -194 1242 -323 2072 -323 865 1 1688 131
2100 334 171 84 261 165 290 261 13 45 13 53 -5 102 -76 203 -492 378 -1150
486 -437 71 -1093 110 -1510 90z m705 -150 c522 -37 954 -125 1190 -242 152
-76 235 -162 235 -243 0 -179 -373 -349 -953 -435 -470 -70 -1114 -79 -1607
-24 -687 77 -1140 259 -1140 459 0 87 76 163 245 245 248 121 713 214 1215
243 135 8 688 6 815 -3z"/>
<path d="M1306 2849 c-70 -17 -98 -66 -61 -103 33 -32 91 -37 423 -34 378 3
385 5 380 72 -5 69 -13 71 -383 73 -178 1 -338 -3 -359 -8z"/>
<path d="M2191 2849 c-58 -11 -71 -24 -71 -69 0 -63 13 -65 410 -65 382 0 402
3 408 58 5 40 -21 64 -79 76 -59 13 -603 13 -668 0z"/>
<path d="M1296 2666 c-51 -14 -66 -28 -66 -62 0 -62 52 -74 335 -81 236 -5
408 5 458 28 25 11 28 17 25 53 -5 69 -13 71 -383 73 -242 2 -332 -1 -369 -11z"/>
</g>
</svg>
